<?xml version="1.0" encoding="utf-8"?>
<!-- Generator: Adobe Illustrator 19.1.1, SVG Export Plug-In . SVG Version: 6.00 Build 0)  -->
<svg version="1.1" id="Layer_1" xmlns="http://www.w3.org/2000/svg" xmlns:xlink="http://www.w3.org/1999/xlink" x="0px" y="0px"
	 viewBox="0 0 182 26" style="enable-background:new 0 0 182 26;" xml:space="preserve">
<style type="text/css">
	.st0{fill:#FFFFFF;}
	.st1{fill:#B44639;}
	.st2{fill:#DB4C3C;}
	.st3{fill:#F3C136;}
	.st4{fill:#D89712;}
	.st5{fill:#757C82;}
</style>
<g>
	<g>
		<g>
			<path class="st0" d="M105.5,15c0,3.1-1.1,4.7-3.3,4.7c-0.3,0-0.7,0-1-0.1v-0.9c0.4,0.1,0.7,0.2,1,0.2c0.8,0,1.5-0.3,1.8-0.9
				c0.4-0.6,0.6-1.6,0.6-2.9V6.5h0.9V15z"/>
			<path class="st0" d="M108.3,19v-1c0.9,0.6,1.9,0.9,2.9,0.9c1,0,1.8-0.2,2.4-0.6c0.5-0.4,0.8-1,0.8-1.8c0-0.7-0.2-1.2-0.5-1.6
				c-0.4-0.4-1.1-0.9-2.3-1.6c-1.3-0.8-2.2-1.4-2.5-1.9c-0.4-0.5-0.5-1.1-0.5-1.8c0-0.9,0.4-1.7,1.1-2.3c0.7-0.6,1.7-1,2.9-1
				c0.8,0,1.6,0.1,2.4,0.4v0.9c-0.8-0.3-1.6-0.5-2.5-0.5c-0.9,0-1.6,0.2-2.1,0.7c-0.5,0.4-0.8,1-0.8,1.7c0,0.7,0.2,1.2,0.5,1.6
				c0.4,0.4,1.1,0.9,2.3,1.6c1.2,0.7,2.1,1.3,2.5,1.8c0.4,0.5,0.6,1.1,0.6,1.8c0,1-0.4,1.8-1.1,2.4c-0.7,0.6-1.7,0.9-3,0.9
				c-0.5,0-1-0.1-1.6-0.2C109.1,19.4,108.6,19.2,108.3,19z"/>
			<path class="st0" d="M117.9,19.5V6.5h4.7c4.7,0,7.1,2.1,7.1,6.3c0,2-0.6,3.6-1.9,4.8c-1.3,1.2-3,1.8-5.1,1.8H117.9z M120.9,8.9
				v8.2h1.5c1.3,0,2.3-0.4,3-1.1c0.7-0.8,1.1-1.8,1.1-3.1c0-1.2-0.4-2.2-1.1-2.9c-0.7-0.7-1.8-1.1-3.1-1.1H120.9z"/>
			<path class="st0" d="M140,19.5h-7.9V6.5h7.6v2.4h-4.7v2.9h4.3v2.4h-4.3v3h5V19.5z"/>
			<path class="st0" d="M150.4,19.5h-7.9V6.5h3v10.6h4.9V19.5z"/>
			<path class="st0" d="M155.3,6.5v12.9h-3V6.5H155.3z"/>
			<path class="st0" d="M169.5,6.5L165,19.5h-3.4l-4.5-12.9h3.2l2.8,9c0.1,0.5,0.2,0.9,0.3,1.3h0.1c0-0.4,0.1-0.8,0.3-1.3l2.7-9
				H169.5z"/>
			<path class="st0" d="M182.4,19.5H179l-2.1-3.3c-0.2-0.3-0.3-0.5-0.4-0.7c-0.1-0.2-0.3-0.4-0.4-0.5c-0.1-0.1-0.3-0.2-0.5-0.3
				c-0.2-0.1-0.3-0.1-0.5-0.1h-0.8v5h-3V6.5h4.7c3.2,0,4.8,1.2,4.8,3.5c0,0.5-0.1,0.9-0.2,1.3c-0.1,0.4-0.3,0.7-0.6,1
				c-0.3,0.3-0.6,0.6-0.9,0.8c-0.4,0.2-0.8,0.4-1.2,0.5v0c0.2,0.1,0.4,0.2,0.6,0.3c0.2,0.1,0.4,0.3,0.5,0.5c0.2,0.2,0.3,0.4,0.5,0.6
				c0.2,0.2,0.3,0.4,0.4,0.6L182.4,19.5z M174.3,8.7v3.6h1.3c0.6,0,1.2-0.2,1.5-0.5c0.4-0.4,0.6-0.8,0.6-1.4c0-1.1-0.7-1.7-2.1-1.7
				H174.3z"/>
		</g>
	</g>
	<g>
		<polygon class="st1" points="83.9,25.4 83,26 82,25.4 82,0.4 83,0 83.9,0.4 		"/>
		<polygon class="st1" points="83,0 95.6,4.3 93.6,20.3 83,26 		"/>
		<polygon class="st2" points="83,0 70.4,4.3 72.4,20.3 83,26 		"/>
		<g>
			<path class="st3" d="M80.8,19.3c-1.2-0.4-2.3-1-3.1-1.9c0,0,0,0,0,0c-0.1-0.1-0.2-0.2-0.3-0.3c-0.7-0.8-1.2-1.7-1.5-2.6
				c0.2,0.2,0.4,0.3,0.6,0.5l0,0c0,0,0,0,0,0c0,0,0,0,0,0c0.3,0.2,0.7,0.4,1,0.6c0.1,0.1,0.2,0.1,0.3,0.1c0.1,0.1,0.3,0.1,0.4,0.2
				c0,0,0,0,0,0c0,0,0.1,0,0.1,0c0.1,0.6,0.5,1.1,1.1,1.2C79.7,17.9,80.1,18.7,80.8,19.3z"/>
			<path class="st3" d="M81.2,9c0,0.3,0.1,0.5,0.2,0.7c-1,1.4-1.7,2.8-2,4.3c0,0.2-0.1,0.3-0.1,0.5c-0.3,0.1-0.6,0.3-0.8,0.6
				c0,0,0,0,0,0c0,0,0,0,0,0c-0.1,0-0.2-0.1-0.3-0.1c-0.2-0.1-0.3-0.1-0.5-0.2c-0.5-0.3-1-0.6-1.4-1c-0.1-0.1-0.2-0.2-0.2-0.3l0,0
				c0,0-0.1-0.1-0.1-0.1c0,0,0,0,0,0c0,0,0,0,0,0c0,0,0,0,0,0c0,0,0,0,0-0.1c0,0,0,0,0,0c0,0,0,0,0,0c0,0,0,0,0,0
				c0-0.1-0.1-0.1-0.1-0.2c0,0,0,0,0,0c0,0,0,0,0,0c0-0.2,0-0.3,0-0.5c0-1.5,0.4-2.8,1.2-4C76.8,8.2,76.9,8.1,77,8
				c0.1-0.1,0.2-0.2,0.3-0.4c0.9-1,2.1-1.8,3.4-2.2c0,0.1,0,0.3,0.1,0.4c0.2,0.8,0.4,1.5,0.8,2.3C81.4,8.3,81.2,8.6,81.2,9z"/>
			<path class="st3" d="M80.4,15.7c0,0.2-0.1,0.3-0.2,0.5c0,0,0,0.1-0.1,0.1c-0.1,0.1-0.3,0.2-0.5,0.2c-0.1,0-0.3,0-0.4-0.1
				c-0.1-0.1-0.2-0.2-0.3-0.3c0-0.1-0.1-0.2-0.1-0.3c0-0.2,0.1-0.4,0.2-0.5c0,0,0,0,0.1-0.1c0.1-0.1,0.3-0.1,0.4-0.1
				c0.2,0,0.3,0.1,0.4,0.1c0.1,0,0.1,0.1,0.2,0.2C80.4,15.5,80.4,15.6,80.4,15.7z"/>
			<path class="st3" d="M83.3,9c0,0.1,0,0.2-0.1,0.3c-0.1,0.2-0.4,0.4-0.6,0.4c0,0-0.1,0-0.1,0c0,0,0,0,0,0
				c-0.3-0.1-0.5-0.3-0.6-0.6c0,0,0-0.1,0-0.1c0-0.1,0-0.2,0-0.2c0.1-0.3,0.4-0.5,0.7-0.5h0c0,0,0,0,0,0c0.3,0,0.6,0.2,0.7,0.5
				C83.3,8.8,83.3,8.9,83.3,9z"/>
			<path class="st4" d="M90.5,12.3c0,0.7-0.1,1.4-0.3,2c-0.6-0.2-1.3-0.4-1.9-0.7c0-0.1,0-0.2,0-0.3c0-0.2,0-0.3-0.1-0.5
				c0,0,0.1,0,0.1-0.1c0.8-0.8,1.4-1.6,1.9-2.5C90.4,11,90.5,11.7,90.5,12.3z"/>
			<path class="st4" d="M89.8,9.3c-0.1,0.1-0.1,0.2-0.2,0.3c-0.5,1-1.2,1.9-2,2.7c0,0,0,0,0,0c-0.2-0.1-0.4-0.2-0.7-0.2
				c-0.3,0-0.6,0.1-0.8,0.3c-0.4-0.3-0.8-0.7-1.2-1c-0.5-0.5-0.9-1-1.3-1.5C83.8,9.6,84,9.3,84,9c0-0.2-0.1-0.5-0.2-0.7
				c1-0.9,2-1.6,3.1-2.2C88.1,6.9,89.2,8,89.8,9.3z"/>
			<path class="st4" d="M87.7,13.4c0,0.3-0.2,0.5-0.4,0.7c-0.1,0-0.2,0.1-0.3,0.1c-0.1,0-0.1,0-0.1,0c-0.3-0.1-0.5-0.3-0.6-0.6
				c0,0,0,0,0,0c0,0,0,0,0,0c0,0,0,0,0,0c0-0.3,0.2-0.6,0.5-0.7c0.1,0,0.2,0,0.2,0c0.1,0,0.1,0,0.2,0C87.4,12.8,87.6,13.1,87.7,13.4
				C87.7,13.4,87.7,13.4,87.7,13.4z"/>
			<path class="st4" d="M87.8,14.4c-0.2,0.2-0.6,0.3-0.9,0.3c-0.3,0-0.5-0.1-0.8-0.2c0,0-0.1,0-0.1,0.1c-1,0.6-2,1.1-3.1,1.3v3.8
				c3.1,0,5.8-1.8,6.9-4.5C89.2,15,88.5,14.7,87.8,14.4z"/>
			<path class="st3" d="M83,15.9c-0.6,0.2-1.3,0.3-1.9,0.3c0,0-0.1,0-0.1,0c-0.1,0.3-0.4,0.6-0.7,0.7c0.2,0.7,0.5,1.3,1.1,1.8
				c0.4,0.4,0.9,0.7,1.5,0.9c0,0,0.1,0,0.1,0V15.9z"/>
			<path class="st4" d="M85.6,13.4c0-0.1,0-0.3,0.1-0.4c-0.4-0.3-0.9-0.7-1.3-1.1c-0.5-0.5-0.9-1-1.3-1.5V15
				c0.9-0.3,1.8-0.6,2.6-1.2c0,0,0,0,0,0C85.6,13.7,85.6,13.6,85.6,13.4z"/>
			<path class="st3" d="M83,10.4c0,0-0.1-0.1-0.1-0.1c-0.1,0-0.2,0-0.3,0c-0.2,0-0.4,0-0.5-0.1c-0.9,1.3-1.5,2.6-1.8,3.9
				c0,0.1,0,0.3-0.1,0.4c0.4,0.1,0.7,0.5,0.8,0.8c0,0,0,0,0,0c0.6,0,1.3-0.1,1.9-0.3V10.4z"/>
			<path class="st4" d="M83,5.1v2.6c0,0,0.1,0,0.1,0C84,6.9,85,6.2,86,5.6C85.1,5.3,84.1,5.1,83,5.1z"/>
			<path class="st3" d="M83,5.1c-0.5,0-1,0-1.4,0.1c0,0.2,0,0.3,0.1,0.5c0.1,0.7,0.4,1.3,0.7,2c0.1,0,0.2,0,0.3,0
				c0.1,0,0.3,0,0.4,0.1V5.1z"/>
		</g>
	</g>
</g>
<g>
	<path class="st5" d="M0,17.2v-8h3.2c0.8,0,1.4,0.2,1.8,0.7s0.7,1,0.7,1.7S5.5,12.9,5,13.4S4,14.1,3.2,14.1H1v3.2H0z M1,13.2h2.1
		c0.5,0,0.9-0.1,1.2-0.4s0.4-0.7,0.4-1.1s-0.1-0.8-0.4-1.1s-0.7-0.4-1.2-0.4H1V13.2z"/>
	<path class="st5" d="M7.3,16.5c-0.5-0.6-0.8-1.3-0.8-2.2s0.3-1.6,0.8-2.2c0.5-0.6,1.2-0.9,2.1-0.9s1.6,0.3,2.1,0.9
		c0.5,0.6,0.8,1.3,0.8,2.2s-0.3,1.6-0.8,2.2c-0.5,0.6-1.2,0.9-2.1,0.9S7.8,17.1,7.3,16.5z M8,12.8c-0.3,0.4-0.5,1-0.5,1.6
		s0.2,1.2,0.5,1.6c0.3,0.4,0.8,0.7,1.4,0.7s1.1-0.2,1.4-0.7c0.3-0.4,0.5-1,0.5-1.6s-0.2-1.2-0.5-1.6s-0.8-0.7-1.4-0.7
		S8.3,12.3,8,12.8z"/>
	<path class="st5" d="M13,11.4h0.9l1.4,4.6l1.5-4.6h0.8l1.5,4.6l1.4-4.6h0.9l-1.9,5.8h-0.9l-1.5-4.7l-1.5,4.7h-0.9L13,11.4z"/>
	<path class="st5" d="M22.2,14.3c0-0.9,0.3-1.6,0.8-2.2c0.5-0.6,1.2-0.9,2-0.9c0.9,0,1.5,0.3,2,0.9s0.8,1.3,0.8,2.2v0.2h-4.7
		c0,0.5,0.2,1,0.6,1.4c0.4,0.4,0.9,0.6,1.5,0.6c0.7,0,1.3-0.2,1.8-0.7l0.4,0.6c-0.6,0.6-1.4,1-2.3,1c-0.9,0-1.6-0.3-2.1-0.8
		C22.5,16,22.2,15.2,22.2,14.3z M23.1,14h3.8c0-0.5-0.2-0.9-0.5-1.3s-0.8-0.6-1.4-0.6c-0.6,0-1,0.2-1.4,0.6S23.1,13.5,23.1,14z"/>
	<path class="st5" d="M29.3,17.2v-5.8h0.9v0.9c0.6-0.7,1.2-1,1.9-1v0.9c-0.1,0-0.3,0-0.3,0c-0.3,0-0.6,0.1-0.9,0.3
		c-0.3,0.2-0.5,0.4-0.7,0.6v4.1H29.3z"/>
	<path class="st5" d="M32.9,14.3c0-0.9,0.3-1.6,0.8-2.2c0.5-0.6,1.2-0.9,2-0.9c0.9,0,1.5,0.3,2,0.9s0.8,1.3,0.8,2.2v0.2h-4.7
		c0,0.5,0.2,1,0.6,1.4c0.4,0.4,0.9,0.6,1.5,0.6c0.7,0,1.3-0.2,1.8-0.7l0.4,0.6c-0.6,0.6-1.4,1-2.3,1c-0.9,0-1.6-0.3-2.1-0.8
		C33.2,16,32.9,15.2,32.9,14.3z M33.8,14h3.8c0-0.5-0.2-0.9-0.5-1.3s-0.8-0.6-1.4-0.6c-0.6,0-1,0.2-1.4,0.6S33.8,13.5,33.8,14z"/>
	<path class="st5" d="M39.6,14.3c0-0.9,0.2-1.7,0.7-2.2s1.1-0.8,1.9-0.8c0.8,0,1.4,0.3,1.9,1V9.2h0.9v8h-0.9v-0.9
		c-0.5,0.7-1.1,1-1.9,1c-0.8,0-1.4-0.3-1.9-0.8C39.9,16,39.6,15.3,39.6,14.3z M41.1,12.7c-0.3,0.4-0.5,1-0.5,1.6s0.2,1.2,0.5,1.6
		c0.3,0.4,0.8,0.6,1.4,0.6c0.3,0,0.7-0.1,1-0.3c0.3-0.2,0.6-0.4,0.7-0.7V13c-0.2-0.3-0.4-0.5-0.7-0.7c-0.3-0.2-0.7-0.3-1-0.3
		C41.9,12.1,41.4,12.3,41.1,12.7z"/>
	<path class="st5" d="M50,17.2v-8h0.9v3.1c0.5-0.7,1.2-1,2-1c0.8,0,1.4,0.3,1.9,0.8s0.7,1.3,0.7,2.2c0,0.9-0.2,1.7-0.7,2.2
		c-0.5,0.5-1.1,0.8-1.9,0.8c-0.8,0-1.5-0.3-2-1v0.9H50z M50.9,15.7c0.2,0.3,0.4,0.5,0.7,0.6c0.3,0.2,0.7,0.3,1,0.3
		c0.6,0,1-0.2,1.4-0.6c0.3-0.4,0.5-1,0.5-1.6s-0.2-1.2-0.5-1.6s-0.8-0.6-1.4-0.6c-0.4,0-0.7,0.1-1,0.3c-0.3,0.2-0.6,0.4-0.7,0.7
		V15.7z"/>
	<path class="st5" d="M56,11.4h1l1.9,4.8l1.9-4.8h1l-2.9,7c-0.3,0.8-0.9,1.2-1.7,1.2c-0.3,0-0.5,0-0.7-0.1l0.1-0.8
		c0.1,0.1,0.3,0.1,0.5,0.1c0.2,0,0.4,0,0.5-0.1s0.3-0.2,0.3-0.5l0.4-0.9L56,11.4z"/>
</g>
</svg>
